<svg width="30" height="30" viewBox="0 0 30 30" fill="none" xmlns="http://www.w3.org/2000/svg">
<path d="M23.3026 26.0699H22.3736C22.4539 25.8532 22.5077 25.6273 22.5331 25.3975L23.7897 11.56C23.8599 10.7857 23.6011 10.0176 23.0767 9.44359C22.5523 8.86955 21.8108 8.54248 21.0333 8.54248H8.96711C8.18958 8.54248 7.44802 8.86955 6.92367 9.44359C6.39932 10.0176 6.14045 10.7857 6.2107 11.56L7.46818 25.4021C7.49335 25.6306 7.54668 25.8549 7.62679 26.07H6.69779C6.3682 26.07 6.06381 26.246 5.89899 26.5314C5.73419 26.8168 5.73419 27.1684 5.89899 27.4538C6.06378 27.7392 6.36819 27.915 6.69779 27.915H23.3026C23.6322 27.915 23.9366 27.7392 24.1014 27.4538C24.2662 27.1684 24.2662 26.8168 24.1014 26.5314C23.9366 26.246 23.6322 26.07 23.3026 26.07L23.3026 26.0699ZM10.231 26.0699C10.0003 26.0695 9.77803 25.9832 9.6075 25.8278C9.43721 25.6724 9.33055 25.4593 9.30858 25.2297L8.05204 11.3923V11.3921C8.0287 11.1334 8.11544 10.8769 8.29099 10.6855C8.46654 10.4941 8.71488 10.3857 8.97466 10.3866H21.0332C21.293 10.3857 21.5411 10.4941 21.7166 10.6855C21.8922 10.8768 21.9791 11.1334 21.9556 11.3921L20.6965 25.2242C20.6755 25.4547 20.5693 25.6692 20.3987 25.8255C20.228 25.9818 20.0053 26.0693 19.7739 26.0702L10.231 26.0699Z" fill="#8E0235"/>
<path d="M25.1471 5.77494H20.5345V4.85233C20.5345 4.11856 20.2431 3.4145 19.724 2.89543C19.2049 2.37655 18.5011 2.08496 17.7671 2.08496H12.2321C11.4981 2.08496 10.7943 2.37656 10.2752 2.89543C9.75633 3.41453 9.46474 4.11856 9.46474 4.85233V5.77494H4.85209C4.5225 5.77494 4.21811 5.95072 4.05328 6.23613C3.88849 6.52155 3.88849 6.87334 4.05328 7.15875C4.21808 7.44416 4.52249 7.61994 4.85209 7.61994H25.1471C25.4767 7.61994 25.7811 7.44416 25.9459 7.15875C26.1107 6.87333 26.1107 6.52154 25.9459 6.23613C25.7811 5.95072 25.4767 5.77494 25.1471 5.77494ZM11.3097 5.77494V4.85233C11.3097 4.60765 11.4068 4.37305 11.5798 4.20001C11.7528 4.0272 11.9874 3.92993 12.2321 3.92993H17.7672C18.0118 3.92993 18.2464 4.0272 18.4195 4.20001C18.5925 4.37304 18.6898 4.60764 18.6898 4.85233V5.77494H11.3097Z" fill="#8E0235"/>
<path d="M12.2326 11.3097C11.9879 11.3097 11.7533 11.4067 11.5803 11.5798C11.4072 11.7528 11.3102 11.9874 11.3102 12.2321V21.457C11.3102 21.7866 11.486 22.091 11.7714 22.2558C12.0568 22.4206 12.4083 22.4206 12.6938 22.2558C12.9792 22.091 13.1552 21.7866 13.1552 21.457V12.2321C13.1552 11.9874 13.0579 11.7528 12.8849 11.5798C12.7118 11.4067 12.4773 11.3097 12.2326 11.3097Z" fill="#8E0235"/>
<path d="M17.7673 11.3097C17.5226 11.3097 17.288 11.4067 17.115 11.5798C16.942 11.7528 16.8449 11.9874 16.8449 12.2321V21.457C16.8449 21.7866 17.0207 22.091 17.3061 22.2558C17.5915 22.4207 17.9431 22.4206 18.2285 22.2558C18.5139 22.091 18.6899 21.7866 18.6899 21.457V12.2321C18.6899 11.9874 18.5926 11.7528 18.4196 11.5798C18.2466 11.4067 18.012 11.3097 17.7673 11.3097Z" fill="#8E0235"/>
</svg>
