<svg width="30" height="30" viewBox="0 0 30 30" fill="none" xmlns="http://www.w3.org/2000/svg">
<path fill-rule="evenodd" clip-rule="evenodd" d="M2.08459 3.3147C2.08459 2.97504 2.35994 2.69971 2.69959 2.69971H9.02534C9.22789 2.69971 9.41764 2.79973 9.53253 2.96681L11.4576 5.77472H23.7851C24.1247 5.77472 24.4001 6.05007 24.4001 6.38972V13.2715H23.1701V7.00436H11.1338C10.931 7.00436 10.7413 6.90435 10.6266 6.73703L8.70131 3.92935H3.31459V23.7849H6.79955V25.0149H2.69959C2.35993 25.0149 2.08459 24.7396 2.08459 24.3999V3.3147Z" fill="#6D028E"/>
<path fill-rule="evenodd" clip-rule="evenodd" d="M9.27043 20.8862C10.0168 22.0854 12.9172 26.1283 17.9282 26.1283C22.9391 26.1283 25.8395 22.0854 26.586 20.8862C25.8396 19.6869 22.9392 15.6442 17.9282 15.6442C12.9171 15.6442 10.0169 19.6869 9.27043 20.8862ZM8.197 20.2836C8.92871 19.0935 12.1573 14.4143 17.9282 14.4143C23.6989 14.4143 26.9276 19.0935 27.6594 20.2836C27.888 20.6558 27.888 21.1167 27.6594 21.4891C26.9277 22.6791 23.6991 27.3584 17.9282 27.3584C12.1572 27.3584 8.92883 22.6792 8.197 21.4891C7.96835 21.1167 7.96835 20.6557 8.197 20.2836Z" fill="#6D028E"/>
<path fill-rule="evenodd" clip-rule="evenodd" d="M17.9283 19.1583C16.9741 19.1583 16.2005 19.9319 16.2005 20.8861C16.2005 21.8403 16.9741 22.6139 17.9283 22.6139C18.8827 22.6139 19.6561 21.8403 19.6561 20.8861C19.6561 19.9319 18.8827 19.1583 17.9283 19.1583ZM14.9705 20.8861C14.9705 19.2526 16.2948 17.9283 17.9283 17.9283C19.5618 17.9283 20.886 19.2527 20.886 20.8861C20.886 22.5197 19.5617 23.8439 17.9283 23.8439C16.2947 23.8439 14.9705 22.5196 14.9705 20.8861Z" fill="#6D028E"/>
</svg>
